<?xml version="1.0" encoding="iso-8859-1"?>
<!-- Generator: Adobe Illustrator 19.0.0, SVG Export Plug-In . SVG Version: 6.00 Build 0)  -->
<svg version="1.1" id="Layer_1" xmlns="http://www.w3.org/2000/svg" xmlns:xlink="http://www.w3.org/1999/xlink" x="0px" y="0px"
	 viewBox="0 0 509.287 509.287" style="enable-background:new 0 0 509.287 509.287;" xml:space="preserve">
<circle style="fill:#4F5565;" cx="254.644" cy="254.644" r="254.644"/>
<polygon style="fill:#D64E3C;" points="182.76,194.289 325.849,194.289 479.11,22.379 336.021,22.379 "/>
<path style="fill:#F7A500;" d="M328.562,170.554H180.726c-12.885,0-23.735,10.511-23.735,23.735
	c0,12.885,10.511,23.735,23.735,23.735h47.809v17.971h52.217v-17.971h47.809c12.885,0,23.735-10.511,23.735-23.735
	C351.958,181.404,341.446,170.554,328.562,170.554z M328.562,204.122H180.726c-5.425,0-9.833-4.408-9.833-9.833
	c0-5.425,4.408-9.833,9.833-9.833h147.836c5.425,0,9.833,4.408,9.833,9.833C338.395,199.714,333.987,204.122,328.562,204.122z"/>
<circle style="fill:#FBD303;" cx="254.644" cy="356.026" r="130.882"/>
<circle style="fill:#FCFCFD;" cx="254.644" cy="356.026" r="102.739"/>
<circle style="fill:#F8B517;" cx="254.644" cy="356.026" r="85.446"/>
<polygon style="fill:#F0582F;" points="326.527,194.289 183.438,194.289 30.177,22.379 173.266,22.379 "/>
<g>
</g>
<g>
</g>
<g>
</g>
<g>
</g>
<g>
</g>
<g>
</g>
<g>
</g>
<g>
</g>
<g>
</g>
<g>
</g>
<g>
</g>
<g>
</g>
<g>
</g>
<g>
</g>
<g>
</g>
</svg>
