<?xml version="1.0" encoding="iso-8859-1"?>
<!-- Generator: Adobe Illustrator 19.0.0, SVG Export Plug-In . SVG Version: 6.00 Build 0)  -->
<svg version="1.1" id="Layer_1" xmlns="http://www.w3.org/2000/svg" xmlns:xlink="http://www.w3.org/1999/xlink" x="0px" y="0px"
	 viewBox="0 0 509.287 509.287" style="enable-background:new 0 0 509.287 509.287;" xml:space="preserve">
<circle style="fill:#73D658;" cx="254.644" cy="254.644" r="254.644"/>
<path style="fill:#F8B517;" d="M463.513,60.016H45.775c-10.511,0-18.988,8.477-18.988,18.988v299.74
	c0,10.511,8.477,18.988,18.988,18.988h417.399c10.511,0,18.988-8.477,18.988-18.988V79.004
	C482.162,68.493,473.685,60.016,463.513,60.016z"/>
<rect x="56.286" y="86.464" style="fill:#646B79;" width="396.376" height="284.821"/>
<path style="fill:#FCFCFD;" d="M175.64,354.67h-53.574c-4.408,0-8.138,3.73-8.138,8.138v8.477h70.188v-8.477
	C183.777,358.4,180.048,354.67,175.64,354.67z"/>
<rect x="330.596" y="319.068" style="fill:#F0BA7A;" width="45.436" height="24.752"/>
<polygon style="fill:#DEDEDF;" points="353.314,449.271 394.681,353.992 387.899,340.768 379.083,337.717 353.314,341.107 
	327.544,337.717 318.728,340.768 311.947,353.992 353.314,449.271 353.314,449.271 353.314,449.271 "/>
<circle style="fill:#393D47;" cx="353.314" cy="266.85" r="55.269"/>
<path style="fill:#F7CFA2;" d="M376.71,245.489h-0.678c-4.408,11.189-19.327,34.925-60.694,25.77v20.005
	c0,21.023,16.954,37.976,37.976,37.976c21.022,0,37.976-16.954,37.976-37.976v-20.344
	C377.388,263.121,376.032,252.27,376.71,245.489z"/>
<g>
	<path style="fill:#393D47;" d="M318.728,340.768l-44.079,14.919c-8.138,2.713-14.241,9.494-15.936,17.971l-16.615,75.613h111.555
		L318.728,340.768z"/>
	<path style="fill:#393D47;" d="M387.899,340.768l44.079,14.919c8.138,2.713,14.241,9.494,15.936,17.971l16.615,75.613H352.975
		L387.899,340.768z"/>
</g>
<polygon style="fill:#D64E3C;" points="360.774,341.107 345.854,341.107 335.004,351.958 344.498,361.452 362.13,361.452 
	371.624,351.958 "/>
<polygon style="fill:#F0582F;" points="344.498,361.452 335.004,418.755 353.314,449.271 371.624,418.755 362.13,361.452 "/>
<g>
	<polygon style="fill:#F1F3F7;" points="330.257,325.849 353.314,341.107 333.987,361.452 318.728,340.768 	"/>
	<polygon style="fill:#F1F3F7;" points="376.371,325.849 353.314,341.107 372.641,361.452 387.899,340.768 	"/>
</g>
<g>
	<polygon style="fill:#646B79;" points="318.728,340.768 305.844,345.176 286.517,382.135 302.453,386.204 292.62,403.497 
		339.751,449.271 353.314,449.271 	"/>
	<polygon style="fill:#646B79;" points="387.899,340.768 400.784,345.176 420.111,382.135 404.175,386.204 414.008,403.497 
		366.877,449.271 353.314,449.271 	"/>
</g>
<g>
</g>
<g>
</g>
<g>
</g>
<g>
</g>
<g>
</g>
<g>
</g>
<g>
</g>
<g>
</g>
<g>
</g>
<g>
</g>
<g>
</g>
<g>
</g>
<g>
</g>
<g>
</g>
<g>
</g>
</svg>
